<svg width="24" height="24" viewBox="0 0 24 24" fill="none" xmlns="http://www.w3.org/2000/svg">
<g clip-path="url(#clip0_46405_911)">
<path d="M10.8019 3.071C11.5433 2.643 12.4566 2.643 13.198 3.071L19.1337 6.498C19.875 6.92601 20.3317 7.71699 20.3317 8.573V15.427C20.3317 16.283 19.875 17.074 19.1337 17.502L13.198 20.929C12.4566 21.357 11.5433 21.357 10.8019 20.929L4.86622 17.502C4.12489 17.074 3.66821 16.283 3.66821 15.427V8.573C3.66821 7.71699 4.12489 6.92601 4.86622 6.498L10.8019 3.071Z" stroke="#0D0D0E" stroke-width="1.5"/>
<rect x="15.25" y="15.25" width="6.5" height="6.5" rx="3.25" transform="rotate(-180 15.25 15.25)" stroke="#0D0D0E" stroke-width="1.5"/>
</g>
<defs>
<clipPath id="clip0_46405_911">
<rect width="24" height="24" fill="white"/>
</clipPath>
</defs>
</svg>
