<svg width="22" height="22" viewBox="0 0 22 22" fill="none" xmlns="http://www.w3.org/2000/svg">
<path d="M1 8C1 6.08611 1.00212 4.75129 1.13753 3.74416C1.26907 2.76579 1.50966 2.2477 1.87868 1.87868C2.2477 1.50966 2.76579 1.26907 3.74416 1.13753C4.75129 1.00212 6.08611 1 8 1H13.9994C15.9133 1 17.2481 1.00212 18.2552 1.13753C19.2336 1.26907 19.7517 1.50966 20.1207 1.87868C20.4897 2.2477 20.7303 2.76579 20.8618 3.74416C20.9972 4.75129 20.9994 6.08611 20.9994 8V13.9994C20.9994 15.9133 20.9972 17.2481 20.8618 18.2552C20.7303 19.2336 20.4897 19.7517 20.1207 20.1207C19.7517 20.4897 19.2336 20.7303 18.2552 20.8618C17.2481 20.9972 15.9133 20.9994 13.9994 20.9994H8C6.08611 20.9994 4.75129 20.9972 3.74416 20.8618C2.76579 20.7303 2.2477 20.4897 1.87868 20.1207C1.50966 19.7517 1.26907 19.2336 1.13753 18.2552C1.00212 17.2481 1 15.9133 1 13.9994V8Z" stroke="#7D7D7D" stroke-width="2"/>
</svg>
